<svg width="527" height="339" viewBox="0 0 527 339" fill="none" xmlns="http://www.w3.org/2000/svg">
<path d="M331.378 308.968L323.411 308.968L319.621 283.961L331.38 283.961L331.378 308.968Z" fill="#9E616A"/>
<path d="M333.41 315.253L307.722 315.252V314.987C307.722 312.83 308.776 310.76 310.651 309.234C312.526 307.708 315.069 306.851 317.72 306.851H317.721L333.41 306.851L333.41 315.253Z" fill="#2F2E41"/>
<path d="M302.787 308.968L294.82 308.968L291.03 283.961L302.788 283.961L302.787 308.968Z" fill="#9E616A"/>
<path d="M304.818 315.253L279.13 315.252V314.987C279.131 312.83 280.184 310.76 282.059 309.234C283.934 307.708 286.477 306.851 289.129 306.851H289.129L304.818 306.851L304.818 315.253Z" fill="#2F2E41"/>
<path d="M210.002 133.739C210.639 134.452 211.46 135.042 212.407 135.469C213.355 135.895 214.406 136.147 215.486 136.208C216.566 136.268 217.649 136.135 218.659 135.817C219.669 135.5 220.581 135.006 221.331 134.371L237.095 139.381L243.172 132.327L220.789 125.507C219.394 124.552 217.617 124.047 215.795 124.087C213.973 124.127 212.232 124.71 210.903 125.724C209.573 126.739 208.747 128.115 208.581 129.593C208.415 131.07 208.921 132.545 210.002 133.739V133.739Z" fill="#9E616A"/>
<path d="M302.686 176.475L281.931 181.984L288.864 301.602L304.882 301.924L313.08 217.568L314.941 301.591L334.747 302.48L342.048 176.475H302.686Z" fill="#2F2E41"/>
<path d="M288.682 105.962L341.95 96.5427L347.874 133.87L342.941 151.705L344.917 178.809C344.917 178.809 302.797 195.87 281.931 181.984C281.931 181.984 298.702 146.135 288.981 129.354L288.682 105.962Z" fill="#E4E4E4"/>
<path d="M297.907 111.241L288.682 105.962C288.682 105.962 288.137 105.347 280.449 112.661C272.761 119.975 257.166 131.61 257.166 131.61L231.173 123.677L226.438 137.916L256.647 149.372L299.415 126.128L297.907 111.241Z" fill="#E4E4E4"/>
<path d="M344.926 192.801C345.905 192.425 346.771 191.878 347.462 191.2C348.154 190.522 348.654 189.729 348.928 188.877C349.202 188.024 349.243 187.133 349.048 186.267C348.853 185.4 348.427 184.579 347.8 183.861L356.784 172.19L349.401 166.017L336.998 182.643C335.585 183.581 334.644 184.907 334.353 186.371C334.062 187.836 334.441 189.336 335.418 190.588C336.395 191.84 337.903 192.757 339.656 193.165C341.408 193.573 343.283 193.443 344.926 192.801Z" fill="#9E616A"/>
<path d="M333.642 103.896L341.95 96.5427C341.95 96.5427 351.207 93.9191 358.771 107.476C366.334 121.033 374.782 148.532 374.782 148.532L355.031 179.493L339.692 173.915L355.031 148.313L338.799 129.354L333.642 103.896Z" fill="#E4E4E4"/>
<path d="M319.553 93.481C327.933 89.7533 331.012 81.2034 326.432 74.3843C321.851 67.5651 311.345 65.059 302.966 68.7867C294.587 72.5144 291.507 81.0643 296.088 87.8834C300.668 94.7026 311.174 97.2087 319.553 93.481Z" fill="#9E616A"/>
<path d="M325.84 68.5507C325.022 65.7565 322.16 63.5511 318.867 62.5168C315.574 61.4826 311.907 61.4926 308.427 61.9738C302.651 62.7724 297.258 64.7995 291.943 66.8062L296.04 68.4011L290.387 68.665L294.755 70.5033C293.588 71.2257 292.701 72.2053 292.198 73.3257C291.695 74.4462 291.598 75.6605 291.917 76.8247C292.142 77.5865 292.743 78.4261 293.705 78.4524C294.869 78.4842 295.476 77.3811 296.29 76.7043C297.373 75.8041 299.084 75.6043 300.618 75.7739C302.152 75.9435 303.608 76.4239 305.121 76.6895C307.035 77.014 309.012 76.9961 310.917 76.637C312.821 76.278 314.607 75.5863 316.15 74.6099L321.597 85.2836C321.546 84.8811 321.61 84.4743 321.783 84.0951C321.957 83.7159 322.236 83.3745 322.599 83.0976C322.961 82.8207 323.398 82.6157 323.874 82.4987C324.35 82.3817 324.853 82.3558 325.343 82.4231C325.833 82.4904 326.298 82.649 326.701 82.8866C327.103 83.1242 327.433 83.4343 327.664 83.7926C327.895 84.151 328.021 84.548 328.032 84.9526C328.044 85.3572 327.94 85.7585 327.729 86.125C330.087 83.2308 331.984 79.9425 332.049 76.4703C332.114 72.998 329.998 69.3402 326.124 67.8832" fill="#2F2E41"/>
<path d="M125.453 284.167L118.088 293.591L122.378 281.323C113.32 273.631 100.78 268.004 100.78 268.004C100.78 268.004 85.3391 288.657 89.495 301.36C93.6509 314.064 104.382 316.489 115.83 314.009C127.277 311.529 135.106 305.083 130.95 292.379C130.025 289.551 128.016 286.775 125.453 284.167Z" fill="#F2F2F2"/>
<path d="M115.708 294.53L115.913 295.156C118.248 302.445 118.598 308.451 116.946 313.091C116.923 313.159 116.896 313.225 116.873 313.293L116.488 313.2L116.119 313.108C117.99 308.078 117.155 301.722 115.12 295.365C115.057 295.159 114.993 294.951 114.921 294.744C114.031 292.059 112.939 289.384 111.751 286.813C111.662 286.613 111.567 286.411 111.472 286.209C109.883 282.822 108.146 279.633 106.537 276.884C106.425 276.69 106.308 276.496 106.193 276.305C103.446 271.662 101.118 268.372 100.594 267.645C100.532 267.556 100.496 267.507 100.488 267.496L100.823 267.334L100.826 267.33L101.164 267.167C101.172 267.178 101.294 267.341 101.508 267.647C102.318 268.786 104.467 271.889 106.945 276.059C107.055 276.248 107.172 276.442 107.284 276.636C108.593 278.866 109.98 281.374 111.3 284.036C111.633 284.704 111.951 285.365 112.255 286.02C112.353 286.221 112.448 286.423 112.538 286.622C113.822 289.402 114.879 292.037 115.708 294.53Z" fill="white"/>
<path d="M106.945 276.059C106.699 276.143 106.449 276.227 106.193 276.305C105.499 276.52 104.792 276.705 104.074 276.861C101.017 277.526 97.8156 277.626 94.7053 277.151C94.599 277.35 94.4928 277.549 94.3838 277.752C97.6638 278.276 101.048 278.183 104.277 277.481C105.043 277.314 105.797 277.115 106.538 276.885C106.789 276.807 107.039 276.723 107.284 276.636C109.311 275.934 111.194 274.985 112.87 273.823C112.651 273.688 112.436 273.555 112.226 273.425C110.635 274.51 108.855 275.398 106.945 276.059Z" fill="white"/>
<path d="M112.255 286.02C111.996 286.089 111.735 286.152 111.473 286.209C111.394 286.23 111.31 286.248 111.23 286.265C107.916 286.983 104.439 287.038 101.093 286.426C97.7478 285.814 94.6339 284.552 92.017 282.749C91.9245 282.965 91.8319 283.181 91.7443 283.399C94.4498 285.211 97.6469 286.473 101.071 287.079C104.495 287.685 108.047 287.619 111.433 286.885C111.539 286.862 111.646 286.839 111.752 286.813C112.017 286.752 112.278 286.689 112.538 286.622C116.549 285.572 120.104 283.603 122.777 280.952C122.596 280.795 122.414 280.639 122.228 280.483C119.637 283.079 116.171 285.003 112.255 286.02Z" fill="white"/>
<path d="M115.708 294.53C115.447 294.607 115.185 294.677 114.921 294.744C114.639 294.815 114.355 294.883 114.069 294.945C109.615 295.906 104.899 295.666 100.626 294.263C96.3537 292.859 92.7545 290.367 90.3678 287.16C90.2785 287.448 90.1882 287.733 90.1066 288.02C92.649 291.185 96.3523 293.617 100.69 294.972C105.028 296.326 109.781 296.534 114.272 295.565C114.558 295.503 114.842 295.438 115.12 295.365C115.389 295.3 115.651 295.23 115.913 295.156C121.186 293.647 125.558 290.562 128.142 286.528C127.987 286.316 127.822 286.109 127.655 285.9C125.203 289.932 120.918 293.027 115.708 294.53Z" fill="white"/>
<path d="M412.75 285.15L405.491 294.437L409.719 282.347C400.793 274.767 388.435 269.222 388.435 269.222C388.435 269.222 373.218 289.574 377.314 302.093C381.409 314.613 391.985 317.002 403.266 314.558C414.547 312.114 422.262 305.761 418.167 293.242C417.255 290.456 415.275 287.72 412.75 285.15Z" fill="#F2F2F2"/>
<path d="M403.146 295.362L403.348 295.979C405.65 303.162 405.994 309.081 404.366 313.654C404.344 313.721 404.317 313.785 404.295 313.852L403.915 313.761L403.552 313.67C405.395 308.713 404.572 302.45 402.567 296.185C402.505 295.982 402.442 295.777 402.371 295.573C401.493 292.927 400.418 290.291 399.247 287.757C399.159 287.56 399.066 287.361 398.972 287.162C397.406 283.824 395.695 280.682 394.109 277.973C393.998 277.781 393.883 277.59 393.769 277.402C391.063 272.826 388.768 269.584 388.252 268.868C388.191 268.78 388.155 268.732 388.148 268.721L388.477 268.561L388.48 268.557L388.813 268.396C388.821 268.408 388.942 268.568 389.153 268.869C389.95 269.992 392.068 273.05 394.51 277.16C394.619 277.346 394.734 277.537 394.845 277.728C396.135 279.926 397.502 282.397 398.802 285.02C399.13 285.679 399.444 286.331 399.743 286.976C399.84 287.174 399.934 287.373 400.022 287.569C401.288 290.308 402.329 292.906 403.146 295.362Z" fill="white"/>
<path d="M394.51 277.16C394.268 277.242 394.021 277.325 393.769 277.402C393.085 277.613 392.388 277.796 391.681 277.949C388.669 278.606 385.514 278.703 382.449 278.235C382.344 278.431 382.239 278.628 382.132 278.827C385.364 279.344 388.699 279.253 391.881 278.56C392.636 278.397 393.38 278.201 394.109 277.973C394.357 277.896 394.603 277.813 394.845 277.728C396.842 277.036 398.698 276.101 400.35 274.956C400.133 274.823 399.922 274.692 399.715 274.563C398.146 275.633 396.393 276.508 394.51 277.16Z" fill="white"/>
<path d="M399.743 286.976C399.488 287.044 399.231 287.106 398.972 287.162C398.894 287.182 398.812 287.2 398.733 287.217C395.468 287.925 392.04 287.979 388.744 287.376C385.447 286.773 382.378 285.53 379.799 283.753C379.708 283.965 379.617 284.178 379.531 284.393C382.197 286.179 385.347 287.422 388.721 288.019C392.096 288.617 395.596 288.551 398.933 287.828C399.038 287.806 399.143 287.783 399.247 287.757C399.509 287.697 399.766 287.635 400.022 287.569C403.975 286.534 407.479 284.594 410.113 281.981C409.934 281.827 409.755 281.672 409.572 281.519C407.018 284.077 403.602 285.974 399.743 286.976Z" fill="white"/>
<path d="M403.146 295.362C402.889 295.438 402.631 295.507 402.371 295.573C402.092 295.643 401.813 295.71 401.531 295.771C397.142 296.718 392.494 296.482 388.284 295.099C384.073 293.716 380.526 291.26 378.174 288.099C378.086 288.383 377.997 288.664 377.917 288.947C380.422 292.066 384.072 294.463 388.347 295.798C392.622 297.132 397.305 297.337 401.731 296.382C402.013 296.321 402.293 296.257 402.567 296.185C402.831 296.121 403.09 296.052 403.348 295.979C408.545 294.492 412.853 291.452 415.4 287.476C415.247 287.267 415.084 287.064 414.92 286.857C412.504 290.83 408.28 293.881 403.146 295.362Z" fill="white"/>
<path d="M262.528 54.4313C262.528 32.2175 243.499 14.2097 220.024 14.2097C196.549 14.2097 177.52 32.2175 177.52 54.4313C177.52 74.5781 193.173 91.2648 213.599 94.1957V97.9861C213.599 98.7022 213.948 99.3889 214.571 99.8952C215.193 100.402 216.037 100.686 216.916 100.686H223.132C224.011 100.686 224.855 100.402 225.477 99.8952C226.1 99.3889 226.449 98.7022 226.449 97.9861V94.1957C246.875 91.2649 262.528 74.5782 262.528 54.4313Z" fill="#6C63FF"/>
<path d="M212.577 97.4382C213.907 96.4218 215.491 95.6517 217.221 95.1807C218.952 94.7097 220.787 94.549 222.6 94.7096C224.428 94.882 226.182 95.3976 227.723 96.2156C229.265 97.0336 230.551 98.1317 231.482 99.4234C232.414 100.677 232.999 102.08 233.197 103.536C233.395 104.991 233.202 106.465 232.63 107.854C231.513 110.624 229.138 112.929 226.703 115.006C224.149 117.186 221.371 119.196 218.97 121.493C215.01 125.303 212.245 129.838 210.912 134.709C209.579 139.579 209.718 144.641 211.316 149.458C213.423 155.565 217.773 161.001 223.784 165.038C224.547 165.546 225.332 166.029 226.141 166.488C227.077 167.022 227.963 165.773 227.035 165.244C220.51 161.487 215.687 156.085 213.313 149.874C211.514 145.033 211.283 139.896 212.645 134.962C214.007 130.027 216.914 125.464 221.084 121.714C223.617 119.438 226.453 117.401 228.986 115.124C231.411 112.943 233.623 110.483 234.57 107.601C235.05 106.136 235.169 104.609 234.92 103.106C234.671 101.604 234.06 100.156 233.121 98.8468C232.186 97.5081 230.922 96.3411 229.407 95.4187C227.893 94.4963 226.16 93.8384 224.318 93.4864C220.613 92.831 216.74 93.3767 213.521 95.0076C212.733 95.417 211.997 95.8899 211.325 96.4191C210.502 97.0638 211.755 98.0821 212.577 97.4382V97.4382Z" fill="#3F3D56"/>
<path d="M98.7382 37.5883C85.7329 13.2575 54.3466 0.912277 28.6348 10.0144C2.92309 19.1166 -7.37739 46.2193 5.62795 70.5501C17.4232 92.617 44.3381 104.824 68.4263 100.115L70.6455 104.266C71.0647 105.051 71.8496 105.667 72.8275 105.981C73.8053 106.294 74.8961 106.278 75.8599 105.937L82.6673 103.527C83.631 103.186 84.3887 102.547 84.7737 101.751C85.1587 100.956 85.1395 100.068 84.7203 99.2836L82.5011 95.132C103.158 84.0019 110.534 59.6552 98.7382 37.5883Z" fill="#6C63FF"/>
<path d="M69.0753 103.939C69.9203 102.354 71.1649 100.932 72.7283 99.7644C74.2918 98.5966 76.1393 97.7091 78.1511 97.1594C80.1266 96.618 82.2236 96.4346 84.2954 96.6219C86.3672 96.8092 88.3636 97.3628 90.1449 98.2438C91.9801 99.1286 93.5624 100.322 94.7863 101.743C96.0102 103.165 96.8477 104.782 97.2429 106.488C98.1506 110.441 96.6778 114.468 95.0042 118.149C93.2498 122.007 91.0636 125.754 89.8437 129.761C88.146 135.392 88.1117 141.27 89.7435 146.914C91.3754 152.558 94.627 157.807 99.2319 162.232C105.032 167.701 112.67 171.671 121.207 173.653C122.254 173.893 123.313 174.098 124.379 174.274C125.492 174.457 125.968 173.068 124.85 172.884C115.967 171.396 107.873 167.698 101.685 162.303C95.126 156.532 91.1636 149.122 90.4445 141.283C90.0594 137.311 90.5067 133.315 91.7673 129.465C93.113 125.403 95.3909 121.599 97.1081 117.641C98.7468 113.864 99.9081 109.808 98.8785 105.811C97.932 102.291 95.3079 99.2218 91.5824 97.2758C89.7969 96.3177 87.7953 95.6579 85.6938 95.3348C83.5923 95.0117 81.4328 95.0318 79.3409 95.3938C75.0688 96.1813 71.3259 98.2639 68.8737 101.218C68.2772 101.954 67.7727 102.737 67.3675 103.555C66.9321 104.412 68.6449 104.785 69.0753 103.939L69.0753 103.939Z" fill="#3F3D56"/>
<path d="M462.03 331.47L471.576 331.469L476.117 301.504L462.028 301.504L462.03 331.47Z" fill="#FFB6B6"/>
<path d="M459.595 328.933L478.395 328.932H478.395C481.573 328.932 484.62 329.96 486.867 331.788C489.114 333.617 490.376 336.096 490.376 338.682V338.999L459.595 339L459.595 328.933Z" fill="#2F2E41"/>
<path d="M405.527 324.863L414.629 327.206L430.065 299.751L416.632 296.293L405.527 324.863Z" fill="#FFB6B6"/>
<path d="M404.146 321.847L422.07 326.461L422.071 326.461C425.1 327.241 427.625 328.969 429.089 331.263C430.554 333.558 430.838 336.232 429.88 338.698L429.763 339L400.415 331.445L404.146 321.847Z" fill="#2F2E41"/>
<path d="M427.022 194.614L421.724 206.773L421.574 272.414L406.551 317.356L424.992 321.545L445.363 279.168L451.897 241.947L460.507 279.385L459.322 323.882H478.67L480.131 255.311C480.541 236.054 476.4 216.912 467.934 198.926V198.926L427.022 194.614Z" fill="#2F2E41"/>
<path d="M420.713 145.362H451.987L465.055 155.997L468.959 199.955L421.724 206.141L406.551 164.198L414.814 146.373L420.713 145.362Z" fill="#E4E4E4"/>
<path d="M409.466 164.618L361.314 149.874L360.061 143.779L390.428 122.868L400.535 129.038L382.215 145.362L414.814 146.373L409.466 164.618Z" fill="#E4E4E4"/>
<path d="M396.268 131.421C400.568 131.421 404.054 128.584 404.054 125.084C404.054 121.585 400.568 118.748 396.268 118.748C391.967 118.748 388.481 121.585 388.481 125.084C388.481 128.584 391.967 131.421 396.268 131.421Z" fill="#FFB6B6"/>
<path d="M414.326 133.067L417.845 120.156C418.462 117.882 419.623 115.729 421.263 113.82C422.903 111.912 424.988 110.285 427.401 109.033C429.814 107.781 432.506 106.928 435.324 106.523C438.142 106.119 441.031 106.17 443.824 106.674C446.618 107.178 449.262 108.125 451.606 109.462C453.949 110.798 455.946 112.497 457.482 114.462C459.019 116.427 460.064 118.618 460.559 120.912C461.053 123.206 460.988 125.556 460.365 127.829L456.847 140.741C456.678 141.357 456.216 141.894 455.562 142.233C454.908 142.572 454.115 142.686 453.358 142.55L416.549 135.907C415.792 135.77 415.133 135.394 414.716 134.861C414.299 134.329 414.159 133.684 414.326 133.067Z" fill="#2F2E41"/>
<path d="M438.567 137.934C447.036 135.937 451.912 128.731 449.458 121.838C447.004 114.946 438.149 110.977 429.68 112.974C421.21 114.972 416.334 122.178 418.788 129.071C421.242 135.963 430.097 139.931 438.567 137.934Z" fill="#FFB6B6"/>
<path d="M412.534 120.281C413.527 116.653 416.249 113.494 420.101 111.497C423.953 109.501 428.621 108.829 433.081 109.629L436.254 110.202C440.712 111.011 444.594 113.226 447.047 116.361C449.501 119.495 450.326 123.294 449.343 126.924L449.272 127.182L442.566 125.972L441.699 120.347L439.822 125.476L436.356 124.851L435.919 122.013L434.971 124.601L412.463 120.539L412.534 120.281Z" fill="#2F2E41"/>
<path d="M428.655 139.615C428.434 139.211 428.359 138.765 428.436 138.328C428.514 137.891 428.742 137.48 429.094 137.144C433.875 132.546 441.204 123.777 436.571 116.718L436.238 116.211L454.38 119.485L448.34 141.652L431.214 141.044C431.04 141.038 430.868 141.02 430.698 140.989C430.248 140.908 429.829 140.741 429.473 140.502C429.118 140.263 428.837 139.959 428.655 139.615Z" fill="#2F2E41"/>
<path d="M450.743 145.628L501.678 151.522L504.526 157.25L480.454 183.024L468.943 178.785L482.476 159.616L450.384 164.383L450.743 145.628Z" fill="#E4E4E4"/>
<path d="M527 62.0692C527 35.5361 504.27 14.0268 476.231 14.0268C448.192 14.0268 425.462 35.5361 425.462 62.0692C425.462 86.1335 444.159 106.065 468.556 109.566V114.093C468.556 114.948 468.974 115.769 469.717 116.373C470.46 116.978 471.468 117.318 472.519 117.318H479.943C480.994 117.318 482.001 116.978 482.745 116.373C483.488 115.769 483.905 114.948 483.905 114.093V109.566C508.302 106.065 527 86.1336 527 62.0692Z" fill="#6C63FF"/>
<path d="M467.214 113.34C468.826 112.107 470.748 111.173 472.847 110.605C474.945 110.036 477.171 109.845 479.369 110.045C481.529 110.252 483.603 110.856 485.433 111.812C487.263 112.768 488.802 114.05 489.933 115.562C491.084 117.053 491.825 118.73 492.103 120.477C492.382 122.224 492.192 123.999 491.547 125.681C490.295 128.981 487.545 131.745 484.68 134.222C481.622 136.865 478.273 139.281 475.35 142.027C470.585 146.533 467.237 151.914 465.592 157.707C463.948 163.499 464.057 169.53 465.909 175.281C468.388 182.672 473.625 189.255 480.898 194.12C481.781 194.706 482.69 195.264 483.625 195.794C484.561 196.327 485.447 195.078 484.519 194.55C476.73 190.07 470.962 183.635 468.097 176.232C465.922 170.453 465.614 164.315 467.202 158.411C468.791 152.507 472.222 147.036 477.166 142.526C480.171 139.796 483.555 137.365 486.594 134.661C489.504 132.073 492.175 129.166 493.371 125.746C493.973 124.018 494.148 122.21 493.885 120.427C493.623 118.644 492.929 116.921 491.843 115.358C490.762 113.759 489.287 112.36 487.51 111.247C485.732 110.134 483.692 109.332 481.516 108.891C477.094 108.064 472.45 108.691 468.593 110.635C467.647 111.122 466.766 111.687 465.962 112.32C465.141 112.966 466.394 113.985 467.214 113.34Z" fill="#3F3D56"/>
<path d="M473.355 190.353C477.655 190.353 481.141 187.516 481.141 184.016C481.141 180.517 477.655 177.68 473.355 177.68C469.054 177.68 465.568 180.517 465.568 184.016C465.568 187.516 469.054 190.353 473.355 190.353Z" fill="#FFB6B6"/>
<path d="M392.214 126.863C391.806 127.389 390.816 127.312 390.26 126.984C389.488 126.528 389.738 125.649 390.269 125.13C391.958 123.48 394.751 125.222 395.128 126.861C395.268 127.66 395.117 128.474 394.693 129.204C394.27 129.934 393.592 130.546 392.745 130.965C390.818 131.894 388.315 131.428 386.659 130.316C383.203 127.996 384.144 123.352 387.982 121.673C390.432 120.602 393.529 121.072 395.942 121.969C398.658 122.979 400.994 124.527 403.506 125.818C409.018 128.626 415.253 130.358 421.724 130.88C422.856 130.974 422.848 129.532 421.724 129.439C418.138 129.137 414.618 128.447 411.256 127.388C407.93 126.291 404.773 124.881 401.85 123.186C398.892 121.536 395.802 119.934 392.142 119.661C390.665 119.521 389.168 119.701 387.805 120.184C386.441 120.667 385.259 121.435 384.378 122.41C383.595 123.283 383.07 124.291 382.846 125.357C382.622 126.422 382.704 127.515 383.085 128.55C383.545 129.632 384.35 130.596 385.416 131.344C386.483 132.091 387.773 132.595 389.157 132.804C390.489 133.009 391.866 132.87 393.097 132.408C394.328 131.945 395.35 131.181 396.022 130.223C397.369 128.327 397.325 125.78 395.29 124.208C394.707 123.725 393.977 123.377 393.174 123.2C392.372 123.022 391.525 123.021 390.722 123.196C389.982 123.4 389.331 123.775 388.848 124.274C388.366 124.774 388.073 125.378 388.005 126.011C387.808 128.472 392.102 129.703 393.743 127.591C394.354 126.804 392.822 126.08 392.214 126.863Z" fill="#3F3D56"/>
<path d="M37.8975 204.32L35.5585 206.708L27.2855 202.725L29.6244 200.337L37.8975 204.32Z" fill="#E4E4E4"/>
<path d="M46.53 214.582L48.5961 217.091L39.9052 220.609L37.839 218.1L46.53 214.582Z" fill="#E4E4E4"/>
<path d="M55.5266 203.673L59.6554 203.792L59.2446 210.823L55.1157 210.704L55.5266 203.673Z" fill="#E4E4E4"/>
<path d="M135.303 14.0721L132.964 16.4603L124.691 12.4776L127.03 10.0889L135.303 14.0721Z" fill="#E4E4E4"/>
<path d="M143.936 24.334L146.002 26.8432L137.311 30.3614L135.245 27.8521L143.936 24.334Z" fill="#E4E4E4"/>
<path d="M152.933 13.4254L157.061 13.5441L156.651 20.5746L152.522 20.456L152.933 13.4254Z" fill="#E4E4E4"/>
<path d="M364.945 39.0541L362.606 41.4423L354.333 37.4596L356.672 35.071L364.945 39.0541Z" fill="#E4E4E4"/>
<path d="M373.578 49.316L375.644 51.8253L366.953 55.3434L364.887 52.8342L373.578 49.316Z" fill="#E4E4E4"/>
<path d="M382.574 38.4075L386.703 38.5262L386.292 45.5567L382.163 45.438L382.574 38.4075Z" fill="#E4E4E4"/>
<path d="M294.695 3.9832L292.356 6.37138L284.083 2.38867L286.422 0L294.695 3.9832Z" fill="#E4E4E4"/>
<path d="M303.327 14.2451L305.393 16.7543L296.703 20.2725L294.636 17.7632L303.327 14.2451Z" fill="#E4E4E4"/>
<path d="M312.324 3.33655L316.453 3.45521L316.042 10.4857L311.913 10.3671L312.324 3.33655Z" fill="#E4E4E4"/>
<path d="M366.117 183.522L363.778 186.294L372.051 190.917L374.391 188.145L366.117 183.522Z" fill="#E4E4E4"/>
<path d="M374.332 204.14L376.398 207.052L385.089 202.969L383.023 200.056L374.332 204.14Z" fill="#E4E4E4"/>
<path d="M391.609 195.555L395.738 195.693L396.149 187.532L392.02 187.394L391.609 195.555Z" fill="#E4E4E4"/>
<path d="M190.62 309.331L197.772 308.431L192.868 261.926L176.929 264.328L190.62 309.331Z" fill="#FFB6B6"/>
<path d="M188.434 307.66L202.52 305.888L202.52 305.887C204.901 305.588 207.33 306.07 209.274 307.229C211.218 308.387 212.516 310.126 212.885 312.063L212.93 312.301L189.867 315.203L188.434 307.66Z" fill="#2F2E41"/>
<path d="M115.448 308.755L122.678 309.005L131.473 267.69L115.534 267.691L115.448 308.755Z" fill="#FFB6B6"/>
<path d="M113.704 306.769L127.944 307.263H127.945C130.351 307.346 132.619 308.205 134.248 309.649C135.877 311.093 136.735 313.004 136.633 314.963L136.62 315.203L113.305 314.395L113.704 306.769Z" fill="#2F2E41"/>
<path d="M129.684 174.149C129.343 174.071 128.994 174.018 128.641 173.991L133.148 143.964L148.443 117.604C149.406 115.946 149.559 114.053 148.874 112.306C148.188 110.559 146.714 109.089 144.748 108.192C142.783 107.295 140.473 107.038 138.284 107.472C136.095 107.907 134.189 109.001 132.952 110.534V110.534C128.944 115.501 125.911 120.946 123.965 126.674L117.539 145.582L122.238 178.007C122.057 178.921 122.206 179.858 122.664 180.705C123.123 181.552 123.873 182.273 124.823 182.781C125.773 183.29 126.884 183.564 128.022 183.571C129.159 183.577 130.274 183.316 131.234 182.819C132.193 182.322 132.956 181.61 133.43 180.769C133.904 179.927 134.069 178.992 133.905 178.076C133.741 177.16 133.256 176.302 132.507 175.606C131.758 174.909 130.778 174.403 129.684 174.149H129.684Z" fill="#FFB6B6"/>
<path d="M138.971 146.506L119.647 128.516L129.22 110.191C130.473 107.792 132.829 105.886 135.786 104.881C138.742 103.875 142.064 103.85 145.042 104.81C148.021 105.77 150.421 107.639 151.73 110.019C153.038 112.399 153.152 115.101 152.047 117.549L138.971 146.506Z" fill="#2F2E41"/>
<path d="M171.093 89.1542C175.742 82.2329 172.617 73.5549 164.112 69.7714C155.607 65.9879 144.944 68.5315 140.295 75.4528C135.645 82.3741 138.771 91.0521 147.276 94.8357C155.781 98.6192 166.444 96.0755 171.093 89.1542Z" fill="#FFB6B6"/>
<path d="M158.629 64.9518H147.292C139.859 64.9518 133.834 70.468 133.834 77.2726L134.359 93.7772C142.39 94.5903 150.245 96.2999 157.702 98.858L158.76 95.1807L160.847 100.024C162.703 100.756 164.544 101.556 166.369 102.425C164.239 94.2811 163.362 86.1563 164.825 79.8449H168.664V76.4252L169.968 79.8449H176.929V79.8449C176.929 77.8891 176.456 75.9525 175.536 74.1455C174.616 72.3386 173.268 70.6968 171.569 69.3138C169.87 67.9309 167.852 66.8339 165.632 66.0854C163.412 65.337 161.032 64.9518 158.629 64.9518Z" fill="#2F2E41"/>
<path d="M195.594 264.452L193.952 264.774L192.573 243.91L182.537 181.455L171.026 157.674L176.634 141.099C176.634 141.099 183.128 129.569 166.893 120.681L153.906 102.905C144.935 98.1316 137.553 101.253 133.619 109.367C130.19 116.437 127.529 125.381 129.112 134.613C132.657 155.293 135.605 157.674 135.605 157.674C135.605 157.674 113.468 177.611 118.19 203.074L115.558 268.999L113.15 268.919L112.887 274.156L133.924 274.857L134.188 269.621L132.443 269.563L140.033 243.429L151.249 208.839L170.731 251.116L177.283 268.041L175.124 268.464L176.632 273.559L197.102 269.547L195.594 264.452Z" fill="#2F2E41"/>
<path d="M210.051 146.068C209.813 146.282 209.598 146.513 209.411 146.757L178.416 130.059L156.272 107.146C154.879 105.704 152.867 104.746 150.64 104.465C148.413 104.184 146.138 104.6 144.274 105.63C142.41 106.66 141.095 108.228 140.595 110.016C140.094 111.804 140.446 113.679 141.578 115.265C145.247 120.403 149.879 125.044 155.305 129.02L173.22 142.147L210.965 153.213C211.889 153.753 212.985 154.064 214.121 154.108C215.257 154.153 216.385 153.929 217.368 153.464C218.352 153 219.149 152.313 219.665 151.488C220.181 150.663 220.392 149.735 220.275 148.814C220.157 147.893 219.715 147.02 219.002 146.299C218.288 145.578 217.334 145.04 216.254 144.75C215.174 144.46 214.014 144.43 212.913 144.664C211.813 144.898 210.819 145.386 210.051 146.068H210.051Z" fill="#FFB6B6"/>
<path d="M183.812 126.956L155.401 132.987L139.534 117.83C137.456 115.845 136.414 113.278 136.629 110.676C136.845 108.075 138.301 105.645 140.688 103.905C143.074 102.165 146.201 101.254 149.403 101.364C152.604 101.475 155.625 102.599 157.821 104.497L183.812 126.956Z" fill="#2F2E41"/>
<path d="M404.024 315.692H21.9016C21.7152 315.692 21.5364 315.632 21.4046 315.525C21.2728 315.417 21.1987 315.272 21.1987 315.12C21.1987 314.969 21.2728 314.823 21.4046 314.716C21.5364 314.609 21.7152 314.548 21.9016 314.548H404.024C404.211 314.548 404.39 314.609 404.521 314.716C404.653 314.823 404.727 314.969 404.727 315.12C404.727 315.272 404.653 315.417 404.521 315.525C404.39 315.632 404.211 315.692 404.024 315.692Z" fill="#CACACA"/>
</svg>
